<svg width="233" height="65" viewBox="0 0 233 65" fill="none" xmlns="http://www.w3.org/2000/svg">
<g clip-path="url(#clip0)">
<path d="M11586.9 -6109.65C11530.2 -5080.71 11473.4 -4051.78 11416.7 -3022.85C11388.9 -2518.89 11359.3 -2015 11333.3 -1510.94C11323.4 -1317.09 11350.1 -1162.45 11518.6 -1047.87C11596 -995.316 11682.6 -956.964 11766.2 -915.864C11887.4 -856.339 12008.6 -796.823 12129.7 -737.298C12353.4 -627.414 12577.1 -517.521 12800.8 -407.638C13005.7 -306.967 13289 -225.701 13341.8 26.4941C13364.5 134.784 13357.7 250.3 13354.9 360.202C13351.9 479.298 13345 598.303 13334.4 716.96C13314.1 945.042 13279.8 1171.86 13232 1395.82C13136.6 1843.86 12987.5 2280.65 12788.4 2693.23C12604.9 3073.43 12384.8 3469.33 12082 3768.35C11933.1 3915.27 11754.9 4037.07 11549.3 4086.16C11285.1 4149.2 11014.7 4078.02 10755.3 4025.35C10283.8 3929.59 9807.93 3856.04 9330.19 3799.36C8337.37 3681.57 7337.57 3636.55 6338.58 3613.52C5328.44 3590.25 4317.87 3582.48 3307.56 3569.13C2817.93 3562.66 2325.74 3540.77 1836.21 3555.22C1607.8 3561.96 1377.02 3585.42 1159.21 3658.08C973.976 3719.88 804.265 3818.06 648.757 3935.29C332.33 4173.83 77.9922 4481.44 -224.891 4735.36C-548.058 5006.29 -935.439 5227.67 -1354.03 5304.4C-1556.66 5341.54 -1766.88 5341.74 -1966.98 5289.78C-2176.29 5235.44 -2406.83 5121.18 -2485.8 4903.98C-2522.81 4802.17 -2503.61 4692.95 -2421.56 4618.08C-2330.47 4534.97 -2195.86 4510.23 -2080.96 4477.56C-1838.99 4408.74 -1597 4339.93 -1355.03 4271.12C-1113.05 4202.31 -871.07 4133.5 -629.095 4064.69C-627.401 4064.2 -628.115 4061.56 -629.828 4062.04C-1138.99 4206.83 -1648.3 4351.1 -2157.32 4496.4C-2300.09 4537.15 -2479.4 4593.98 -2505.24 4764.44C-2528.11 4915.26 -2413.18 5057.59 -2301.16 5142.93C-2001.19 5371.48 -1558.07 5367.73 -1210.83 5274.86C-822.323 5170.93 -466.435 4952.71 -166.254 4688.6C157.381 4403.85 435.345 4063.26 803.239 3831.61C1226.12 3565.33 1711.9 3550.98 2196.74 3557.19C3243.89 3570.6 4291.02 3584.28 5338.15 3598.75C6368.93 3612.99 7400.54 3632.95 8428.62 3713.88C8953.89 3755.24 9478.07 3812.55 9998.81 3893.21C10251.7 3932.39 10503.8 3977.05 10754.6 4027.98C10989.3 4075.66 11231.1 4138.4 11472.2 4103.59C11860.5 4047.53 12147.6 3740.34 12361.5 3434.29C12619.1 3065.71 12826.9 2659.81 12986.4 2239.76C13145.8 1819.81 13256 1381.12 13313.4 935.564C13342.6 708.352 13358.2 479.298 13359.3 250.208C13360.3 66.0186 13343.1 -111.274 13176 -219.958C13076.9 -284.429 12964 -330.538 12858.1 -382.563C12741.6 -439.799 12625.1 -497.026 12508.6 -554.262C12275.6 -668.725 12042.6 -783.196 11809.6 -897.659C11588.7 -1006.16 11342.1 -1102.31 11333 -1386.91C11324.7 -1646.68 11358.2 -1912.92 11372.5 -2172.42C11430.7 -3227.6 11488.9 -4282.78 11547.1 -5337.96C11561.3 -5595.19 11575.5 -5852.42 11589.7 -6109.66C11589.8 -6111.41 11587 -6111.41 11586.9 -6109.65Z" fill="#FFF47D"/>
<path d="M78.4227 47.4732C81.8202 45.6508 85.117 43.746 88.2123 41.777L90.4193 40.2477L77.3787 41.3192L78.0472 40.8704C81.2066 38.6817 84.2378 36.3831 87.0493 34.0571L89.1372 32.3354L62.4974 37.0608L61.5816 37.2257L62.4974 37.0608V31.6211V29.8903L61.0962 28.8738L56.9753 25.8975L56.4075 25.4854L55.7115 24.9818L55.391 25.1558L55.0064 25.3664L54.1638 25.8243V21.7857V20.5311L52.7627 19.5146L47.7076 15.8607L46.3065 14.8441L44.8687 15.4211V1.32733V-0.266113L43.4676 0.484821L34.8777 5.11863L33.4765 5.87873V7.47217V17.4449L29.209 19.7344L27.8079 20.5036V22.0971V25.8701L27.3317 25.5221L26.9654 25.2565L26.3152 24.7803L25.5642 25.1832L24.9415 25.5129L20.8755 27.7108L19.4743 28.4709V30.0643V35.5315L18.8608 35.971C18.8516 35.9802 18.8425 35.9802 18.8333 35.9894L18.815 36.0077C5.35312 45.7149 0.142365 55.0924 5.19743 60.9625C8.35685 64.6439 15.0603 66.5854 24.5752 66.5854C38.9437 66.5854 58.4497 62.0889 76.7651 54.5612C80.6297 52.9678 84.4118 51.2645 87.9925 49.4787L92.0128 47.4823H78.4227V47.4732ZM10.8569 56.8049C8.14622 54.4056 10.8203 48.0593 18.8516 40.8796V40.8613L19.4652 40.3484V56.3653C16.0585 57.1895 12.1939 57.5558 10.8569 56.8049Z" fill="white"/>
<path d="M40.9215 7.78329C40.0698 7.76498 39.209 7.76498 38.3573 7.75582C37.8262 7.74666 37.698 7.87487 37.6888 8.40602C37.6797 8.9738 37.6797 9.55074 37.6705 10.146C37.4232 10.146 37.2126 10.1368 37.002 10.1368C36.6723 10.1368 36.4708 10.3108 36.4617 10.5764C36.4617 10.842 36.6631 11.0251 36.9928 11.0343C37.2126 11.0434 37.4232 11.0434 37.6339 11.0434C37.6339 11.3548 37.6247 11.6295 37.6247 11.9134C37.4965 11.9134 37.3866 11.9134 37.2767 11.9134C37.1577 11.9134 37.0386 11.9043 36.9104 11.9134C36.6357 11.9317 36.4434 12.1241 36.4434 12.3713C36.4434 12.6186 36.6357 12.8017 36.9196 12.8109C37.1485 12.82 37.3774 12.82 37.6339 12.82C37.6339 13.1314 37.6247 13.4153 37.6247 13.69C37.6247 14.0014 37.7987 14.1937 38.0551 14.2029C38.3299 14.212 38.513 14.0197 38.5222 13.69C38.5313 13.4153 38.5313 13.1497 38.5313 12.8292C38.6778 12.8292 38.7877 12.8292 38.8976 12.8292C39.5295 12.8384 40.1614 12.8475 40.8024 12.8475C41.1138 12.8475 41.3061 12.6827 41.3244 12.4263C41.3427 12.1515 41.1413 11.9592 40.8208 11.9501C40.372 11.9317 39.9141 11.9409 39.4654 11.9317C39.1632 11.9317 38.8702 11.9226 38.568 11.9226C38.568 11.6112 38.5771 11.3457 38.5771 11.0526C39.3097 11.0618 40.0149 11.0709 40.7292 11.0709C40.949 11.0709 41.1779 11.0526 41.3794 10.9885C42.1303 10.7687 42.634 10.0086 42.5424 9.25769C42.4417 8.40602 41.7915 7.81077 40.9215 7.78329ZM40.8024 10.1735C40.0698 10.1735 39.3464 10.1551 38.5954 10.1551C38.6046 9.65147 38.6046 9.18443 38.6137 8.68991C38.687 8.68075 38.7603 8.67159 38.8335 8.67159C39.4929 8.68075 40.1614 8.68075 40.8208 8.68991C41.3244 8.69907 41.6633 9.01043 41.6541 9.44084C41.6541 9.88041 41.3061 10.1735 40.8024 10.1735Z" fill="url(#paint0_linear)"/>
<path d="M20.8753 29.3131L25.564 26.7856V54.0024C26.0219 53.746 26.4889 53.4712 26.9651 53.1965V26.9871L27.8077 27.6006L29.2088 28.6171L29.8681 29.0933V51.4016C30.3627 51.0811 30.8297 50.7789 31.2693 50.4858V30.1007V28.3699L29.8681 27.3534L29.2088 26.8772V21.3276L35.5917 17.8934V47.3722C36.0588 46.9875 36.5258 46.6029 36.9929 46.2V18.2964L39.5204 20.1279V43.9106C39.9966 43.4527 40.4636 42.9948 40.9215 42.5277V21.1444V19.4136L39.5204 18.3971L37.4599 16.9044L36.9929 16.5656L36.1961 15.9886L35.5917 16.3183L34.8774 16.7029V15.9154V15.7963V6.71184L43.4674 2.07802V40.4215L44.8685 40.1742V1.32709V-0.266357L43.4674 0.484577L34.8774 5.11839L33.4763 5.87848V7.47193V17.4447L29.2088 19.7341L27.8077 20.5034V22.0968V25.8698L27.3315 25.5218L26.9651 25.2562L26.3149 24.78L25.564 25.183L24.9413 25.5127L20.8753 27.7105L19.4741 28.4706V30.0641V56.3742C19.9503 56.2643 20.4265 56.1361 20.8753 56.0079V29.3131Z" fill="url(#paint1_linear)"/>
<path d="M47.7078 17.5725L52.7628 21.2265V26.5654L50.9405 27.5453L50.739 27.6552V29.2486V39.1298L52.1401 38.8826V28.4885L52.7628 28.1589L54.164 27.3988L55.0065 26.9409V38.3789L56.4076 38.1316V27.1973L61.0964 30.5948V37.2983L62.4975 37.051V31.6113V29.8805L61.0964 28.864L56.9754 25.8786L56.4076 25.4665L55.7116 24.972L55.3911 25.1368L55.0065 25.3474L54.164 25.8053V21.7668V20.5121L52.7628 19.4956L47.7078 15.8417L46.3066 14.8252V16.556V39.9174L47.7078 39.6701V17.5725Z" fill="url(#paint2_linear)"/>
<path d="M77.2597 47.2806C77.3879 47.2165 77.5161 47.1432 77.6443 47.0791C81.2524 45.1651 84.65 43.1871 87.8185 41.1724L43.2845 44.8446C37.2312 49.9363 30.6285 53.7917 24.9141 55.8522C30.2805 54.0756 36.3338 51.1268 42.1398 47.2806H77.2597Z" fill="url(#paint3_linear)"/>
<path d="M43.2753 43.5441L76.9025 40.7784C77.1497 40.6136 77.3878 40.4488 77.6351 40.2839C80.8403 38.0586 83.8349 35.7875 86.5914 33.498L43.1379 41.2089C38.4766 46.4013 33.1468 50.5864 28.2017 53.2146C33.0736 51.0076 38.3576 47.6834 43.2753 43.5441Z" fill="url(#paint4_linear)"/>
<path d="M42.2038 48.5805C29.2365 57.1704 15.0328 61.3189 9.99608 57.8298C5.72858 54.881 9.38251 47.3716 18.1739 39.6975V38.0857C6.89161 46.6756 1.99222 55.0733 6.56193 60.3939C9.33672 63.6175 15.2251 65.2659 23.055 65.449C22.2217 65.0919 21.6905 64.6156 21.5806 64.0296C21.141 61.7951 26.7547 58.8096 34.1176 57.3719C41.4804 55.9341 47.7992 56.5843 48.2388 58.8188C48.541 60.3481 46.0043 62.2255 42.0207 63.7182C52.5063 61.8225 64.2465 58.4067 75.9409 53.5989C79.8513 51.9871 83.5602 50.3021 87.0584 48.5713H42.2038V48.5805Z" fill="url(#paint5_linear)"/>
<path d="M101.113 46.3545C98.2207 46.3545 95.8779 48.6255 95.8779 51.5659C95.8779 54.5063 98.1968 56.7773 101.113 56.7773C104.006 56.7773 106.349 54.5063 106.349 51.5659C106.349 48.6255 104.006 46.3545 101.113 46.3545ZM101.113 53.8847C99.8223 53.8847 98.8422 52.9524 98.8422 51.5659C98.8422 50.1794 99.8223 49.2471 101.113 49.2471C102.404 49.2471 103.384 50.1794 103.384 51.5659C103.384 52.9524 102.404 53.8847 101.113 53.8847Z" fill="#177246"/>
<path d="M114.333 50.1801H110.962V46.6421H107.998V56.4911H110.962V52.9531H114.333V56.4911H117.273V46.6421H114.333V50.1801Z" fill="#177246"/>
<path d="M119.974 52.2121C119.974 53.4312 119.472 54.005 118.564 53.742V56.515C121.457 56.8497 122.939 55.4154 122.939 52.4272V49.4868H125.066V56.515H128.031V46.6421H119.974V52.2121Z" fill="#177246"/>
<path d="M137.354 47.5498C136.708 46.8087 135.728 46.3545 134.413 46.3545C131.832 46.3545 129.704 48.6255 129.704 51.5659C129.704 54.5063 131.832 56.7773 134.413 56.7773C135.728 56.7773 136.708 56.3231 137.354 55.582V56.5143H140.318V46.6414H137.354V47.5498ZM135.011 53.9803C133.649 53.9803 132.668 53.048 132.668 51.5659C132.668 50.0837 133.649 49.1514 135.011 49.1514C136.374 49.1514 137.354 50.0837 137.354 51.5659C137.354 53.048 136.374 53.9803 135.011 53.9803Z" fill="#177246"/>
<path d="M150.096 42.9126H144.167V45.4705H150.096V42.9126Z" fill="#177246"/>
<path d="M145.362 51.5666V46.6421H142.47V56.4911H144.645L148.876 51.5666V56.4911H151.745V46.6421H149.594L145.362 51.5666Z" fill="#177246"/>
<path d="M160.231 50.1801H156.885V46.6421H153.92V56.4911H156.885V52.9531H160.231V56.4911H163.196V46.6421H160.231V50.1801Z" fill="#177246"/>
<path d="M176.272 51.4942C176.989 50.9922 177.324 50.2272 177.324 49.3188C177.324 47.7649 175.937 46.3545 173.547 46.3545C171.85 46.3545 170.439 47.0717 169.602 48.6733L171.993 50.0359C172.352 49.2471 172.854 48.8885 173.619 48.8885C174.168 48.8885 174.551 49.1275 174.551 49.6056C174.551 50.0359 174.264 50.275 173.619 50.275H172.543V52.7612H173.929C174.575 52.7612 174.862 53.0241 174.862 53.4544C174.862 53.9564 174.431 54.2194 173.69 54.2194C172.782 54.2194 172.16 53.7891 171.897 53.0241L169.507 54.4345C170.272 56.0362 171.682 56.7773 173.642 56.7773C176.296 56.7773 177.73 55.4625 177.73 53.813C177.73 52.809 177.204 51.9723 176.272 51.4942Z" fill="#177246"/>
<path d="M186.36 47.5498C185.715 46.8087 184.735 46.3545 183.42 46.3545C180.838 46.3545 178.71 48.6255 178.71 51.5659C178.71 54.5063 180.838 56.7773 183.42 56.7773C184.735 56.7773 185.715 56.3231 186.36 55.582V56.5143H189.324V46.6414H186.36V47.5498ZM184.017 53.9803C182.655 53.9803 181.675 53.048 181.675 51.5659C181.675 50.0837 182.655 49.1514 184.017 49.1514C185.38 49.1514 186.36 50.0837 186.36 51.5659C186.36 53.048 185.38 53.9803 184.017 53.9803Z" fill="#177246"/>
<path d="M199.078 42.9126H193.149V45.4705H199.078V42.9126Z" fill="#177246"/>
<path d="M194.369 51.5666V46.6421H191.476V56.4911H193.651L197.883 51.5666V56.4911H200.751V46.6421H198.576L194.369 51.5666Z" fill="#177246"/>
<path d="M208.138 50.3713L205.772 46.6421H202.927V56.4911H205.772V51.3993L207.971 54.8417H208.329L210.529 51.3993V56.4911H213.373V46.6421H210.529L208.138 50.3713Z" fill="#177246"/>
<path d="M220.163 49.582H218.513V46.6177H215.549V56.4906H220.163C222.553 56.4906 224.035 55.1041 224.035 53.0483C224.035 50.9685 222.553 49.582 220.163 49.582ZM220.186 53.9327H218.513V52.1637H220.186C220.784 52.1637 221.143 52.5462 221.143 53.0483C221.143 53.5503 220.76 53.9327 220.186 53.9327Z" fill="#177246"/>
<path d="M227.979 46.6421H225.015V56.5151H227.979V46.6421Z" fill="#177246"/>
<path d="M109.226 27.6721C109.226 30.9949 106.375 33.0528 102.637 33.0528C98.9742 33.0528 96.9163 31.3536 95.8779 28.8426L99.3896 26.8414C99.8427 28.2196 100.73 29.258 102.637 29.258C104.336 29.258 105.148 28.5405 105.148 27.37C105.148 26.1995 104.317 25.482 102.599 25.482H100.371V21.876H102.127C103.732 21.876 104.544 21.2152 104.544 20.1202C104.544 19.0252 103.94 18.3644 102.486 18.3644C100.919 18.3644 100.126 19.3084 99.6727 20.4034L96.1989 18.4022C97.2939 16.2121 99.2008 14.5696 102.505 14.5696C106.035 14.5696 108.622 16.5708 108.622 19.837C108.622 21.4418 107.961 22.6501 106.847 23.5185C108.32 24.3493 109.226 25.7652 109.226 27.6721Z" fill="black"/>
<path d="M124.178 19.9883V32.6943H120.365V31.5049C119.534 32.4677 118.288 33.053 116.57 33.053C113.247 33.053 110.491 30.1267 110.491 26.3507C110.491 22.5559 113.228 19.6484 116.57 19.6484C118.269 19.6484 119.515 20.2337 120.365 21.1966V20.0072H124.178V19.9883ZM120.365 26.3507C120.365 24.4439 119.1 23.2545 117.344 23.2545C115.588 23.2545 114.323 24.4439 114.323 26.3507C114.323 28.2576 115.588 29.447 117.344 29.447C119.1 29.447 120.365 28.2576 120.365 26.3507Z" fill="black"/>
<path d="M138.924 19.9883V32.6943H135.223V26.3508L129.786 32.6943H126.992V19.9883H130.692V26.3508L136.129 19.9883H138.924ZM129.125 15.1929H136.752V18.4968H129.125V15.1929Z" fill="black"/>
<path d="M155.179 32.6946H151.516V26.1433L148.666 30.5611H148.212L145.362 26.1433V32.6946H141.718V19.9885H145.38L148.458 24.784L151.535 19.9885H155.198V32.6946H155.179Z" fill="black"/>
<path d="M157.35 26.3507C157.35 22.5559 160.352 19.6484 164.09 19.6484C167.828 19.6484 170.83 22.5748 170.83 26.3507C170.83 30.1267 167.828 33.053 164.09 33.053C160.352 33.053 157.35 30.1455 157.35 26.3507ZM166.998 26.3507C166.998 24.5383 165.733 23.3489 164.071 23.3489C162.41 23.3489 161.145 24.5383 161.145 26.3507C161.145 28.1632 162.41 29.3526 164.071 29.3526C165.733 29.3526 166.998 28.1632 166.998 26.3507Z" fill="black"/>
<path d="M181.875 23.6512H176.796V32.6946H172.982V19.9885H181.875V23.6512Z" fill="black"/>
<path d="M197.186 26.3503C197.186 30.1263 194.449 33.0526 191.107 33.0526C189.408 33.0526 188.162 32.4673 187.312 31.5045V37.7725H183.499V19.9879H187.312V21.1773C188.143 20.2144 189.389 19.6292 191.107 19.6292C194.449 19.648 197.186 22.5555 197.186 26.3503ZM193.373 26.3503C193.373 24.4435 192.108 23.2541 190.352 23.2541C188.596 23.2541 187.331 24.4435 187.331 26.3503C187.331 28.2572 188.596 29.4466 190.352 29.4466C192.108 29.4466 193.373 28.2572 193.373 26.3503Z" fill="black"/>
<path d="M212.385 19.9883V32.6943H208.571V31.5049C207.74 32.4677 206.494 33.053 204.776 33.053C201.453 33.053 198.697 30.1267 198.697 26.3507C198.697 22.5559 201.434 19.6484 204.776 19.6484C206.475 19.6484 207.721 20.2337 208.571 21.1966V20.0072H212.385V19.9883ZM208.571 26.3507C208.571 24.4439 207.306 23.2545 205.55 23.2545C203.794 23.2545 202.529 24.4439 202.529 26.3507C202.529 28.2576 203.794 29.447 205.55 29.447C207.306 29.447 208.571 28.2576 208.571 26.3507Z" fill="black"/>
<path d="M228.526 29.1452V36.1118H224.826V32.7134H217.765V36.1118H214.064V29.1452H215.631C216.273 28.1445 216.651 26.9363 216.651 24.7462V19.9885H226.865V29.1452H228.526ZM223.164 29.1452V23.4057H220.351V24.7462C220.351 26.5964 220.106 27.9935 219.615 29.1452H223.164Z" fill="black"/>
</g>
<defs>
<linearGradient id="paint0_linear" x1="39.5094" y1="14.2086" x2="39.5094" y2="7.7549" gradientUnits="userSpaceOnUse">
<stop offset="0.4064" stop-color="#009E8B"/>
<stop offset="0.9749" stop-color="#00880E"/>
</linearGradient>
<linearGradient id="paint1_linear" x1="32.169" y1="59.128" x2="32.169" y2="-0.269197" gradientUnits="userSpaceOnUse">
<stop stop-color="#EAFF00"/>
<stop offset="0.7489" stop-color="#009E8B"/>
<stop offset="0.9749" stop-color="#00880E"/>
</linearGradient>
<linearGradient id="paint2_linear" x1="54.4004" y1="59.1277" x2="54.4004" y2="14.8238" gradientUnits="userSpaceOnUse">
<stop stop-color="#EAFF00"/>
<stop offset="0.7489" stop-color="#009E8B"/>
<stop offset="0.9749" stop-color="#00880E"/>
</linearGradient>
<linearGradient id="paint3_linear" x1="24.9159" y1="48.5148" x2="87.8275" y2="48.5148" gradientUnits="userSpaceOnUse">
<stop stop-color="#006C45"/>
<stop offset="0.7763" stop-color="#56E87E"/>
</linearGradient>
<linearGradient id="paint4_linear" x1="28.2056" y1="43.3583" x2="86.5905" y2="43.3583" gradientUnits="userSpaceOnUse">
<stop stop-color="#006C45"/>
<stop offset="0.7763" stop-color="#56E87E"/>
</linearGradient>
<linearGradient id="paint5_linear" x1="45.2013" y1="66.6343" x2="46.845" y2="35.2719" gradientUnits="userSpaceOnUse">
<stop stop-color="#006C45"/>
<stop offset="0.7763" stop-color="#56E87E"/>
</linearGradient>
<clipPath id="clip0">
<rect width="233" height="65" fill="white"/>
</clipPath>
</defs>
</svg>
