<?xml version="1.0" encoding="utf-8"?>
<!-- Generator: Adobe Illustrator 23.0.1, SVG Export Plug-In . SVG Version: 6.00 Build 0)  -->
<svg version="1.1" id="Слой_1" xmlns="http://www.w3.org/2000/svg" xmlns:xlink="http://www.w3.org/1999/xlink" x="0px" y="0px"
	 viewBox="0 0 300 88" style="enable-background:new 0 0 300 88;" xml:space="preserve" width="300">
<style type="text/css">
	.st0{fill:#FFFFFF;}
	.st1{fill:url(#SVGID_1_);}
	.st2{fill:url(#SVGID_2_);}
	.st3{fill:url(#SVGID_3_);}
	.st4{fill:url(#SVGID_4_);}
	.st5{fill:url(#SVGID_5_);}
	.st6{fill:url(#SVGID_6_);}
	.st7{fill:#3BC16C;}
</style>
<path class="st0" d="M98.7,62.8c4.5-2.4,8.8-4.9,12.9-7.5l2.9-2l-17.1,1.4l0.9-0.6c4.2-2.9,8.1-5.9,11.8-9l2.7-2.3l-35,6.2l-1.2,0.2
	l1.2-0.2v-7.2v-2.3L76,38.3l-5.4-3.9l-0.7-0.5l-0.9-0.7l-0.4,0.2L68,33.7l-1.1,0.6V29v-1.6L65,26l-6.6-4.8l-1.8-1.3l-1.9,0.8V2.1V0
	l-1.8,1L41.5,7.1l-1.8,1v2.1v13.1l-5.6,3l-1.8,1v2.1v5l-0.6-0.5l-0.5-0.3l-0.9-0.6l-1,0.5l-0.8,0.4l-5.3,2.9l-1.8,1v2.1v7.2
	l-0.8,0.6c0,0,0,0,0,0l0,0C2.7,60.4-4.1,72.8,2.5,80.5c4.2,4.8,13,7.4,25.5,7.4c18.9,0,44.5-5.9,68.6-15.8
	c5.1-2.1,10.1-4.3,14.8-6.7l5.3-2.6L98.7,62.8L98.7,62.8z M9.9,75c-3.6-3.2,0-11.5,10.5-20.9v0l0.8-0.7v21.1
	C16.8,75.5,11.7,76,9.9,75z"/>
<linearGradient id="SVGID_1_" gradientUnits="userSpaceOnUse" x1="47.5828" y1="70.9799" x2="47.5828" y2="79.4554" gradientTransform="matrix(1 0 0 -1 0 90)">
	<stop  offset="0.4064" style="stop-color:#009E8B"/>
	<stop  offset="0.9749" style="stop-color:#00880E"/>
</linearGradient>
<path class="st1" d="M49.5,10.6c-1.1,0-2.3,0-3.4,0c-0.7,0-0.9,0.2-0.9,0.9c0,0.7,0,1.5,0,2.3c-0.3,0-0.6,0-0.9,0
	c-0.4,0-0.7,0.2-0.7,0.6c0,0.3,0.3,0.6,0.7,0.6c0.3,0,0.6,0,0.8,0c0,0.4,0,0.8,0,1.1c-0.2,0-0.3,0-0.5,0c-0.2,0-0.3,0-0.5,0
	c-0.4,0-0.6,0.3-0.6,0.6c0,0.3,0.3,0.6,0.6,0.6c0.3,0,0.6,0,0.9,0c0,0.4,0,0.8,0,1.1c0,0.4,0.2,0.7,0.6,0.7c0.4,0,0.6-0.2,0.6-0.7
	c0-0.4,0-0.7,0-1.1c0.2,0,0.3,0,0.5,0c0.8,0,1.7,0,2.5,0c0.4,0,0.7-0.2,0.7-0.6c0-0.4-0.2-0.6-0.7-0.6c-0.6,0-1.2,0-1.8,0
	c-0.4,0-0.8,0-1.2,0c0-0.4,0-0.8,0-1.1c1,0,1.9,0,2.8,0c0.3,0,0.6,0,0.9-0.1c1-0.3,1.6-1.3,1.5-2.3C51.5,11.4,50.6,10.6,49.5,10.6z
	 M49.3,13.7c-1,0-1.9,0-2.9,0c0-0.7,0-1.3,0-1.9c0.1,0,0.2,0,0.3,0c0.9,0,1.7,0,2.6,0c0.7,0,1.1,0.4,1.1,1
	C50.4,13.3,50,13.7,49.3,13.7z"/>
<linearGradient id="SVGID_2_" gradientUnits="userSpaceOnUse" x1="37.9511" y1="11.9272" x2="37.9511" y2="90.0037" gradientTransform="matrix(1 0 0 -1 0 90)">
	<stop  offset="0" style="stop-color:#EAFF00"/>
	<stop  offset="0.7489" style="stop-color:#009E8B"/>
	<stop  offset="0.9749" style="stop-color:#00880E"/>
</linearGradient>
<path class="st2" d="M23.1,38.9l6.2-3.3v35.8c0.6-0.3,1.2-0.7,1.8-1.1V35.8l1.1,0.8l1.8,1.3l0.9,0.6v29.3c0.7-0.4,1.3-0.8,1.8-1.2
	V39.9v-2.3l-1.8-1.3l-0.9-0.6v-7.3l8.4-4.5v38.7c0.6-0.5,1.2-1,1.8-1.5V24.4l3.3,2.4v31.3c0.6-0.6,1.2-1.2,1.8-1.8V28.1v-2.3
	l-1.8-1.3l-2.7-2l-0.6-0.4l-1-0.8l-0.8,0.4l-0.9,0.5v-1v-0.2V9.2l11.3-6.1v50.4l1.8-0.3V2.1V0l-1.8,1L41.5,7.1l-1.8,1v2.1v13.1
	l-5.6,3l-1.8,1v2.1v5l-0.6-0.5l-0.5-0.3l-0.9-0.6l-1,0.5l-0.8,0.4l-5.3,2.9l-1.8,1v2.1v34.6c0.6-0.1,1.3-0.3,1.8-0.5V38.9z"/>
<linearGradient id="SVGID_3_" gradientUnits="userSpaceOnUse" x1="67.1733" y1="11.9275" x2="67.1733" y2="70.164" gradientTransform="matrix(1 0 0 -1 0 90)">
	<stop  offset="0" style="stop-color:#EAFF00"/>
	<stop  offset="0.7489" style="stop-color:#009E8B"/>
	<stop  offset="0.9749" style="stop-color:#00880E"/>
</linearGradient>
<path class="st3" d="M58.4,23.4l6.6,4.8v7l-2.4,1.3l-0.3,0.1v2.1v13l1.8-0.3V37.8l0.8-0.4l1.8-1l1.1-0.6v15l1.8-0.3V36.1l6.2,4.5
	v8.8l1.8-0.3v-7.2v-2.3L76,38.3l-5.4-3.9l-0.7-0.5l-0.9-0.6l-0.4,0.2L68,33.7l-1.1,0.6V29v-1.6L65,26l-6.6-4.8l-1.8-1.3v2.3v30.7
	l1.8-0.3V23.4z"/>
<linearGradient id="SVGID_4_" gradientUnits="userSpaceOnUse" x1="28.412" y1="25.8815" x2="111.0987" y2="25.8815" gradientTransform="matrix(1 0 0 -1 0 90)">
	<stop  offset="0" style="stop-color:#006C45"/>
	<stop  offset="0.7763" style="stop-color:#56E87E"/>
</linearGradient>
<path class="st4" d="M97.2,62.5c0.2-0.1,0.3-0.2,0.5-0.3c4.7-2.5,9.2-5.1,13.4-7.8l-58.5,4.8c-8,6.7-16.6,11.8-24.1,14.5
	c7.1-2.3,15-6.2,22.6-11.3H97.2z"/>
<linearGradient id="SVGID_5_" gradientUnits="userSpaceOnUse" x1="32.7331" y1="32.6584" x2="109.4855" y2="32.6584" gradientTransform="matrix(1 0 0 -1 0 90)">
	<stop  offset="0" style="stop-color:#006C45"/>
	<stop  offset="0.7763" style="stop-color:#56E87E"/>
</linearGradient>
<path class="st5" d="M52.5,57.6L96.7,54c0.3-0.2,0.6-0.4,1-0.7c4.2-2.9,8.1-5.9,11.8-8.9L52.4,54.5c-6.1,6.8-13.1,12.3-19.6,15.8
	C39.1,67.4,46.1,63,52.5,57.6z"/>
<linearGradient id="SVGID_6_" gradientUnits="userSpaceOnUse" x1="55.0755" y1="2.0608" x2="57.236" y2="43.2856" gradientTransform="matrix(1 0 0 -1 0 90)">
	<stop  offset="0" style="stop-color:#006C45"/>
	<stop  offset="0.7763" style="stop-color:#56E87E"/>
</linearGradient>
<path class="st6" d="M51.1,64.2C34.1,75.5,15.4,81,8.8,76.4C3.2,72.5,8,62.6,19.6,52.5v-2.1C4.7,61.7-1.7,72.7,4.3,79.7
	C7.9,84,15.7,86.1,26,86.4c-1.1-0.5-1.8-1.1-1.9-1.9c-0.6-2.9,6.8-6.9,16.5-8.8c9.7-1.9,18-1,18.6,1.9c0.4,2-2.9,4.5-8.2,6.4
	c13.8-2.5,29.2-7,44.6-13.3c5.1-2.1,10-4.3,14.6-6.6L51.1,64.2L51.1,64.2z"/>
<path class="st7" d="M132.5,61.3c-3.8,0-6.9,3-6.9,6.9c0,3.9,3,6.9,6.9,6.9c3.8,0,6.9-3,6.9-6.9C139.4,64.3,136.3,61.3,132.5,61.3z
	 M132.5,71.2c-1.7,0-3-1.2-3-3c0-1.8,1.3-3,3-3c1.7,0,3,1.2,3,3C135.5,70,134.2,71.2,132.5,71.2z"/>
<path class="st7" d="M149.9,66.3h-4.4v-4.7h-3.9v12.9h3.9V70h4.4v4.7h3.9V61.7h-3.9V66.3z"/>
<path class="st7" d="M157.3,69c0,1.6-0.7,2.4-1.9,2v3.6c3.8,0.4,5.8-1.4,5.8-5.4v-3.9h2.8v9.2h3.9v-13h-10.6V69z"/>
<path class="st7" d="M180.2,62.9c-0.8-1-2.1-1.6-3.9-1.6c-3.4,0-6.2,3-6.2,6.9c0,3.9,2.8,6.9,6.2,6.9c1.7,0,3-0.6,3.9-1.6v1.2h3.9
	v-13h-3.9V62.9z M177.1,71.3c-1.8,0-3.1-1.2-3.1-3.2c0-1.9,1.3-3.2,3.1-3.2c1.8,0,3.1,1.2,3.1,3.2C180.2,70.1,178.9,71.3,177.1,71.3
	z"/>
<path class="st7" d="M196.9,56.8h-7.8v3.4h7.8V56.8z"/>
<path class="st7" d="M190.7,68.1v-6.5h-3.8v12.9h2.9l5.6-6.5v6.5h3.8V61.7h-2.8L190.7,68.1z"/>
<path class="st7" d="M210.2,66.3h-4.4v-4.7h-3.9v12.9h3.9V70h4.4v4.7h3.9V61.7h-3.9V66.3z"/>
<path class="st7" d="M231.3,68c0.9-0.7,1.4-1.7,1.4-2.9c0-2-1.8-3.9-5-3.9c-2.2,0-4.1,0.9-5.2,3l3.1,1.8c0.5-1,1.1-1.5,2.1-1.5
	c0.7,0,1.2,0.3,1.2,0.9c0,0.6-0.4,0.9-1.2,0.9h-1.4v3.3h1.8c0.8,0,1.2,0.3,1.2,0.9c0,0.7-0.6,1-1.5,1c-1.2,0-2-0.6-2.4-1.6l-3.1,1.9
	c1,2.1,2.9,3.1,5.4,3.1c3.5,0,5.4-1.7,5.4-3.9C233.2,69.8,232.5,68.7,231.3,68z"/>
<path class="st7" d="M244.6,62.9c-0.8-1-2.1-1.6-3.9-1.6c-3.4,0-6.2,3-6.2,6.9c0,3.9,2.8,6.9,6.2,6.9c1.7,0,3-0.6,3.9-1.6v1.2h3.9
	v-13h-3.9V62.9z M241.5,71.3c-1.8,0-3.1-1.2-3.1-3.2c0-1.9,1.3-3.2,3.1-3.2c1.8,0,3.1,1.2,3.1,3.2C244.6,70.1,243.3,71.3,241.5,71.3
	z"/>
<path class="st7" d="M261.3,56.8h-7.8v3.4h7.8V56.8z"/>
<path class="st7" d="M255.1,68.1v-6.5h-3.8v12.9h2.9l5.6-6.5v6.5h3.8V61.7h-2.9L255.1,68.1z"/>
<path class="st7" d="M273.2,66.6l-3.1-4.9h-3.7v12.9h3.7v-6.7l2.9,4.5h0.5l2.9-4.5v6.7h3.7V61.7h-3.7L273.2,66.6z"/>
<path class="st7" d="M289,65.5h-2.2v-3.9h-3.9v13h6.1c3.1,0,5.1-1.8,5.1-4.5C294.1,67.3,292.1,65.5,289,65.5z M289,71.2h-2.2v-2.3
	h2.2c0.8,0,1.3,0.5,1.3,1.2C290.3,70.7,289.8,71.2,289,71.2z"/>
<path class="st7" d="M299.3,61.7h-3.9v13h3.9V61.7z"/>
<path class="st0" d="M143.2,36.7c0,4.4-3.7,7.1-8.7,7.1c-4.8,0-7.5-2.2-8.9-5.5l4.6-2.6c0.6,1.8,1.8,3.2,4.3,3.2
	c2.2,0,3.3-0.9,3.3-2.5c0-1.5-1.1-2.5-3.4-2.5h-2.9v-4.7h2.3c2.1,0,3.2-0.9,3.2-2.3c0-1.4-0.8-2.3-2.7-2.3c-2.1,0-3.1,1.2-3.7,2.7
	l-4.6-2.6c1.4-2.9,3.9-5,8.3-5c4.6,0,8,2.6,8,6.9c0,2.1-0.9,3.7-2.3,4.8C142,32.4,143.2,34.2,143.2,36.7z"/>
<path class="st0" d="M162.8,26.6v16.7h-5v-1.6c-1.1,1.3-2.7,2-5,2c-4.4,0-8-3.8-8-8.8c0-5,3.6-8.8,8-8.8c2.2,0,3.9,0.8,5,2v-1.6
	L162.8,26.6L162.8,26.6z M157.8,35c0-2.5-1.7-4.1-4-4.1c-2.3,0-4,1.6-4,4.1c0,2.5,1.7,4.1,4,4.1C156.2,39.1,157.8,37.5,157.8,35z"/>
<path class="st0" d="M182.2,26.6v16.7h-4.9V35l-7.1,8.3h-3.7V26.6h4.9V35l7.1-8.4H182.2z M169.3,20.3h10v4.3h-10V20.3z"/>
<path class="st0" d="M203.6,43.3h-4.8v-8.6l-3.7,5.8h-0.6l-3.7-5.8v8.6h-4.8V26.6h4.8l4,6.3l4-6.3h4.8L203.6,43.3L203.6,43.3z"/>
<path class="st0" d="M206.4,35c0-5,3.9-8.8,8.9-8.8c4.9,0,8.9,3.8,8.9,8.8c0,5-3.9,8.8-8.9,8.8C210.4,43.8,206.4,40,206.4,35z
	 M219.1,35c0-2.4-1.7-3.9-3.8-3.9c-2.2,0-3.8,1.6-3.8,3.9c0,2.4,1.7,3.9,3.8,3.9C217.5,38.9,219.1,37.4,219.1,35z"/>
<path class="st0" d="M238.7,31.4H232v11.9h-5V26.6h11.7V31.4z"/>
<path class="st0" d="M258.8,35c0,5-3.6,8.8-8,8.8c-2.2,0-3.9-0.8-5-2V50h-5V26.6h5v1.6c1.1-1.3,2.7-2,5-2
	C255.2,26.2,258.8,30,258.8,35z M253.8,35c0-2.5-1.7-4.1-4-4.1c-2.3,0-4,1.6-4,4.1c0,2.5,1.7,4.1,4,4.1
	C252.1,39.1,253.8,37.5,253.8,35z"/>
<path class="st0" d="M278.8,26.6v16.7h-5v-1.6c-1.1,1.3-2.7,2-5,2c-4.4,0-8-3.8-8-8.8c0-5,3.6-8.8,8-8.8c2.2,0,3.9,0.8,5,2v-1.6
	L278.8,26.6L278.8,26.6z M273.8,35c0-2.5-1.7-4.1-4-4.1c-2.3,0-4,1.6-4,4.1c0,2.5,1.7,4.1,4,4.1C272.1,39.1,273.8,37.5,273.8,35z"/>
<path class="st0" d="M300,38.7v9.2h-4.9v-4.5h-9.3v4.5H281v-9.2h2.1c0.8-1.3,1.3-2.9,1.3-5.8v-6.3h13.4v12H300z M293,38.7v-7.5h-3.7
	v1.8c0,2.4-0.3,4.3-1,5.8H293z"/>
</svg>
