<svg width="18" height="21" viewBox="0 0 18 21" fill="none" xmlns="http://www.w3.org/2000/svg">
<path fill-rule="evenodd" clip-rule="evenodd" d="M4.80758 16.2206C6.63914 18.3234 8.44512 19.7897 8.52105 19.8511L9.01231 20.248L9.50355 19.8511C9.57953 19.7897 11.3855 18.3235 13.217 16.2207C15.7436 13.32 17.0246 10.7162 17.0246 8.48187V8.26039C17.0246 3.84238 13.4303 0.248047 9.01231 0.248047C4.5943 0.248047 1 3.84238 1 8.26035V8.48184C1 10.7162 2.28102 13.32 4.80758 16.2206ZM15.4612 8.48187C15.4612 12.2579 10.596 16.8288 9.01231 18.2163C7.4282 16.8283 2.56336 12.2576 2.56336 8.48187V8.26039C2.56336 4.70445 5.45637 1.81145 9.01231 1.81145C12.5682 1.81145 15.4612 4.70445 15.4612 8.26039V8.48187ZM9.01233 4.54736C6.96499 4.54736 5.29933 6.21302 5.29933 8.26036C5.29933 10.3077 6.96499 11.9734 9.01233 11.9734C11.0597 11.9734 12.7253 10.3077 12.7253 8.26036C12.7253 6.21302 11.0597 4.54736 9.01233 4.54736ZM9.01233 10.41C7.82702 10.41 6.86268 9.44568 6.86268 8.26036C6.86268 7.07505 7.82702 6.11072 9.01233 6.11072C10.1976 6.11072 11.162 7.07505 11.162 8.26036C11.162 9.44568 10.1976 10.41 9.01233 10.41Z" fill="white"/>
<path d="M8.52105 19.8511L8.42674 19.9677L8.42678 19.9678L8.52105 19.8511ZM4.80758 16.2206L4.92069 16.1221L4.92069 16.1221L4.80758 16.2206ZM9.01231 20.248L8.91803 20.3647L9.0123 20.4409L9.10658 20.3647L9.01231 20.248ZM9.50355 19.8511L9.59783 19.9678L9.59784 19.9678L9.50355 19.8511ZM13.217 16.2207L13.1039 16.1221L13.1039 16.1221L13.217 16.2207ZM9.01231 18.2163L8.91345 18.3291L9.0123 18.4158L9.11116 18.3291L9.01231 18.2163ZM8.61537 19.7345C8.54244 19.6755 6.74404 18.2155 4.92069 16.1221L4.69447 16.3191C6.53424 18.4314 8.34779 19.9039 8.42674 19.9677L8.61537 19.7345ZM9.10658 20.1314L8.61533 19.7344L8.42678 19.9678L8.91803 20.3647L9.10658 20.1314ZM9.40928 19.7345L8.91804 20.1314L9.10658 20.3647L9.59783 19.9678L9.40928 19.7345ZM13.1039 16.1221C11.2806 18.2155 9.4822 19.6755 9.40927 19.7345L9.59784 19.9678C9.67686 19.9039 11.4904 18.4314 13.3301 16.3192L13.1039 16.1221ZM16.8746 8.48187C16.8746 10.6617 15.6223 13.2307 13.1039 16.1221L13.3301 16.3192C15.8648 13.4092 17.1746 10.7708 17.1746 8.48187H16.8746ZM16.8746 8.26039V8.48187H17.1746V8.26039H16.8746ZM9.01231 0.398047C13.3475 0.398047 16.8746 3.92522 16.8746 8.26039H17.1746C17.1746 3.75954 13.5132 0.0980469 9.01231 0.0980469V0.398047ZM1.15 8.26035C1.15 3.92523 4.67714 0.398047 9.01231 0.398047V0.0980469C4.51145 0.0980469 0.85 3.75954 0.85 8.26035H1.15ZM1.15 8.48184V8.26035H0.85V8.48184H1.15ZM4.92069 16.1221C2.40222 13.2307 1.15 10.6617 1.15 8.48184H0.85C0.85 10.7707 2.15981 13.4092 4.69447 16.3191L4.92069 16.1221ZM9.11116 18.3291C9.90606 17.6327 11.5259 16.1362 12.9483 14.3378C14.3649 12.5467 15.6112 10.4248 15.6112 8.48187H15.3112C15.3112 10.315 14.125 12.3665 12.713 14.1517C11.3068 15.9296 9.70223 17.4124 8.91345 18.1035L9.11116 18.3291ZM2.41336 8.48187C2.41336 10.4246 3.6596 12.5465 5.07614 14.3375C6.49846 16.1359 8.11834 17.6325 8.91345 18.3291L9.11116 18.1035C8.32217 17.4122 6.71757 15.9294 5.31145 14.1514C3.89954 12.3662 2.71336 10.3148 2.71336 8.48187H2.41336ZM2.41336 8.26039V8.48187H2.71336V8.26039H2.41336ZM9.01231 1.66145C5.37352 1.66145 2.41336 4.62161 2.41336 8.26039H2.71336C2.71336 4.7873 5.53921 1.96145 9.01231 1.96145V1.66145ZM15.6112 8.26039C15.6112 4.62161 12.6511 1.66145 9.01231 1.66145V1.96145C12.4854 1.96145 15.3112 4.7873 15.3112 8.26039H15.6112ZM15.6112 8.48187V8.26039H15.3112V8.48187H15.6112ZM5.44933 8.26036C5.44933 6.29587 7.04783 4.69736 9.01233 4.69736V4.39736C6.88215 4.39736 5.14933 6.13018 5.14933 8.26036H5.44933ZM9.01233 11.8234C7.04783 11.8234 5.44933 10.2249 5.44933 8.26036H5.14933C5.14933 10.3905 6.88215 12.1234 9.01233 12.1234V11.8234ZM12.5753 8.26036C12.5753 10.2249 10.9768 11.8234 9.01233 11.8234V12.1234C11.1425 12.1234 12.8753 10.3905 12.8753 8.26036H12.5753ZM9.01233 4.69736C10.9769 4.69736 12.5753 6.29587 12.5753 8.26036H12.8753C12.8753 6.13018 11.1426 4.39736 9.01233 4.39736V4.69736ZM6.71268 8.26036C6.71268 9.52852 7.74418 10.56 9.01233 10.56V10.26C7.90986 10.26 7.01268 9.36283 7.01268 8.26036H6.71268ZM9.01233 5.96072C7.74418 5.96072 6.71268 6.99221 6.71268 8.26036H7.01268C7.01268 7.1579 7.90986 6.26072 9.01233 6.26072V5.96072ZM11.312 8.26036C11.312 6.99221 10.2805 5.96072 9.01233 5.96072V6.26072C10.1148 6.26072 11.012 7.1579 11.012 8.26036H11.312ZM9.01233 10.56C10.2805 10.56 11.312 9.52852 11.312 8.26036H11.012C11.012 9.36283 10.1148 10.26 9.01233 10.26V10.56Z" fill="white"/>
</svg>
