<svg width="9" height="14" viewBox="0 0 9 14" fill="none" xmlns="http://www.w3.org/2000/svg">
<path fill-rule="evenodd" clip-rule="evenodd" d="M8.1368 7.00012C8.16112 6.82562 8.13279 6.57908 7.9285 6.37478L2.34985 0.796143C2.13892 0.585209 1.88296 0.561859 1.70775 0.590375C1.52106 0.620758 1.34207 0.717504 1.19945 0.860118C1.05684 1.00273 0.960092 1.18172 0.929709 1.36841C0.901193 1.54363 0.924542 1.79959 1.13548 2.01052L6.12508 7.00012L1.13548 11.9897C0.924543 12.2007 0.901193 12.4566 0.929709 12.6318C0.960092 12.8185 1.05684 12.9975 1.19945 13.1401C1.34207 13.2827 1.52106 13.3795 1.70775 13.4099C1.88296 13.4384 2.13892 13.415 2.34985 13.2041L7.9285 7.62546C8.1328 7.42116 8.16112 7.17462 8.1368 7.00012Z" fill="#292929"/>
</svg>
