<?xml version="1.0" encoding="utf-8"?>
<!-- Generator: Adobe Illustrator 23.0.1, SVG Export Plug-In . SVG Version: 6.00 Build 0)  -->
<svg version="1.1" id="Слой_1" xmlns="http://www.w3.org/2000/svg" xmlns:xlink="http://www.w3.org/1999/xlink" x="0px" y="0px"
	 viewBox="0 0 37 14" style="enable-background:new 0 0 37 14;" xml:space="preserve">
<path d="M37,1.5c0-0.5-0.5-1-1-1c-0.6,0-1,0.4-1,1L37,1.5z M36,13v1c0.6,0,1-0.4,1-1L36,13z M24.5,12c-0.6,0-1,0.4-1,1
	c0,0.5,0.5,1,1,1V12z M34.9,1.5l0,11.5l2.1,0l0-11.5L34.9,1.5z M36,12l-11.4,0v2H36V12z"/>
<path d="M0.2,9.3c-0.3,0.4-0.2,1.1,0.3,1.4c0.5,0.3,1.1,0.2,1.4-0.2L0.2,9.3z M1.9,8.7L1,8.1L1.9,8.7z M1.9,10.4l0.8-1.1L1,8.1
	L0.2,9.3L1.9,10.4z M2.7,9.3c8.2-11.1,26-9.2,31.5,3.2l1.9-0.8C30-2.2,10.1-4.2,1,8.1L2.7,9.3z"/>
</svg>
