<?xml version="1.0" encoding="utf-8"?>
<!-- Generator: Adobe Illustrator 23.0.5, SVG Export Plug-In . SVG Version: 6.00 Build 0)  -->
<svg version="1.1" id="Слой_1" xmlns="http://www.w3.org/2000/svg" xmlns:xlink="http://www.w3.org/1999/xlink" x="0px" y="0px"
	 viewBox="0 0 14 8" style="enable-background:new 0 0 14 8;" xml:space="preserve">
<style type="text/css">
	.st0{fill-rule:evenodd;clip-rule:evenodd;fill:#FFFFFF;}
</style>
<path class="st0" d="M13.8,0.2c-0.2-0.2-0.6-0.2-0.8,0L6.6,6.9c-0.2,0.2-0.2,0.6,0,0.9c0.2,0.2,0.6,0.2,0.8,0l6.4-6.7
	C14.1,0.8,14.1,0.4,13.8,0.2z"/>
<path class="st0" d="M7.4,7.8c-0.2,0.2-0.6,0.2-0.8,0L0.2,1.1c-0.2-0.2-0.2-0.6,0-0.9c0.2-0.2,0.6-0.2,0.8,0l6.4,6.7
	C7.6,7.2,7.6,7.6,7.4,7.8z"/>
</svg>
