<svg width="8" height="14" viewBox="0 0 8 14" fill="none" xmlns="http://www.w3.org/2000/svg">
<path fill-rule="evenodd" clip-rule="evenodd" d="M0.165939 7.00012C0.141611 6.82562 0.16994 6.57908 0.374239 6.37478L5.95288 0.796143C6.16381 0.585209 6.41977 0.561859 6.59499 0.590375C6.78168 0.620758 6.96067 0.717504 7.10328 0.860118C7.2459 1.00273 7.34264 1.18172 7.37303 1.36841C7.40154 1.54363 7.37819 1.79959 7.16726 2.01052L2.17766 7.00012L7.16726 11.9897C7.37819 12.2007 7.40154 12.4566 7.37303 12.6318C7.34264 12.8185 7.2459 12.9975 7.10328 13.1401C6.96067 13.2827 6.78168 13.3795 6.59499 13.4099C6.41977 13.4384 6.16381 13.415 5.95288 13.2041L0.374239 7.62546C0.169938 7.42116 0.14161 7.17462 0.165939 7.00012Z" fill="#292929"/>
</svg>
