<?xml version="1.0" encoding="utf-8"?>
<!-- Generator: Adobe Illustrator 23.0.5, SVG Export Plug-In . SVG Version: 6.00 Build 0)  -->
<svg version="1.1" id="Слой_1" xmlns="http://www.w3.org/2000/svg" xmlns:xlink="http://www.w3.org/1999/xlink" x="0px" y="0px"
	 viewBox="0 0 30 30" style="enable-background:new 0 0 30 30;" xml:space="preserve">
<style type="text/css">
	.st0{fill:#FFFFFF;}
</style>
<g>
	<path class="st0" d="M15,0C6.8,0,0,6.7,0,15c0,8.3,6.7,15,15,15c8.3,0,15-6.7,15-15C30,6.8,23.3,0,15,0z M15,27.6
		C8,27.6,2.4,21.9,2.4,15C2.4,8,8.1,2.4,15,2.4c7,0,12.6,5.7,12.6,12.6C27.6,22,21.9,27.6,15,27.6z"/>
	<path class="st0" d="M23.1,10.5c-2.2,2.1-4.3,4.2-6.5,6.3c-0.3-0.5-0.8-0.9-0.4-1.6c0.3-0.6-0.2-1.4-0.8-1.4
		c-0.8-0.1-0.9-0.6-1.2-1.2c3-0.8,5.9-1.5,8.8-2.3C23.1,10.4,23.1,10.5,23.1,10.5z"/>
	<path class="st0" d="M6.9,19.5c2.2-2.1,4.3-4.2,6.5-6.4c0.3,0.5,0.8,0.9,0.4,1.6c-0.3,0.6,0.2,1.4,0.8,1.4c0.8,0.1,0.9,0.6,1.2,1.2
		c-3,0.8-5.9,1.5-8.8,2.3C6.9,19.6,6.9,19.5,6.9,19.5z"/>
	<path class="st0" d="M15,5.3L15,5.3c-0.2,0-0.3-0.1-0.3-0.3V4c0-0.2,0.1-0.3,0.3-0.3l0,0c0.2,0,0.3,0.1,0.3,0.3v0.9
		C15.3,5.1,15.2,5.3,15,5.3z"/>
	<path class="st0" d="M21.9,8.2c-0.1-0.1-0.1-0.3,0-0.4l0.6-0.6C22.6,7,22.8,7,23,7.1c0.1,0.1,0.1,0.3,0,0.4l-0.6,0.6
		C22.2,8.3,22,8.3,21.9,8.2z"/>
	<path class="st0" d="M24.7,15.1c0-0.2,0.1-0.3,0.3-0.3h0.9c0.2,0,0.3,0.1,0.3,0.3s-0.1,0.3-0.3,0.3H25
		C24.8,15.4,24.7,15.3,24.7,15.1z"/>
	<path class="st0" d="M21.7,22L21.7,22c0.1-0.1,0.3-0.1,0.4,0l0.6,0.6c0.1,0.1,0.1,0.3,0,0.4c-0.1,0.1-0.3,0.1-0.4,0l-0.6-0.6
		C21.6,22.3,21.6,22.1,21.7,22z"/>
	<path class="st0" d="M14.8,24.8c0.2,0,0.3,0.1,0.3,0.3V26c0,0.2-0.1,0.3-0.3,0.3c-0.2,0-0.3-0.1-0.3-0.3v-0.9
		C14.5,24.9,14.6,24.8,14.8,24.8z"/>
	<path class="st0" d="M7.9,21.8c0.1,0.1,0.1,0.3,0,0.4l-0.6,0.6c-0.1,0.1-0.3,0.1-0.4,0c-0.1-0.1-0.1-0.3,0-0.4l0.6-0.6
		C7.6,21.7,7.8,21.7,7.9,21.8z"/>
	<path class="st0" d="M5.2,14.9c0,0.2-0.1,0.3-0.3,0.3H3.9c-0.2,0-0.3-0.1-0.3-0.3c0-0.2,0.1-0.3,0.3-0.3h0.9
		C5,14.6,5.2,14.7,5.2,14.9z"/>
	<path class="st0" d="M8.1,8C8,8.2,7.8,8.2,7.6,8L7,7.4C6.9,7.3,6.9,7.1,7,7v0c0.1-0.1,0.3-0.1,0.4,0l0.6,0.6C8.2,7.7,8.2,7.9,8.1,8
		z"/>
</g>
</svg>
