<?xml version="1.0" encoding="utf-8"?>
<!-- Generator: Adobe Illustrator 23.0.5, SVG Export Plug-In . SVG Version: 6.00 Build 0)  -->
<svg version="1.1" id="Слой_1" xmlns="http://www.w3.org/2000/svg" xmlns:xlink="http://www.w3.org/1999/xlink" x="0px" y="0px"
	 viewBox="0 0 21 28" style="enable-background:new 0 0 21 28;" xml:space="preserve">
<style type="text/css">
	.st0{fill:#FFFFFF;}
</style>
<path class="st0" d="M9.9,10.2l0.3,0l0-0.3l0-8.1h9.1v24.4H1.8V10.2L9.9,10.2z M0.1,9.3L0.1,9.3L0,9.5v17v1.3V28h0.3h1.3h18h1.3H21
	v-0.3v-1.3v-25V0.3V0h-0.3h-1.3H9.5H9.4L9.3,0.1L0.1,9.3z"/>
<path class="st0" d="M3.3,14.7h13.9v-1.1H3.3V14.7z"/>
<path class="st0" d="M3.3,18.6h13.9v-1.1H3.3V18.6z"/>
<path class="st0" d="M3.3,22.5h13.9v-1.1H3.3V22.5z"/>
</svg>
