<svg width="12" height="13" viewBox="0 0 12 13" fill="none" xmlns="http://www.w3.org/2000/svg">
<path fill-rule="evenodd" clip-rule="evenodd" d="M0.946821 2.50391C0.552431 2.08298 0.573952 1.42202 0.99489 1.02763C1.41583 0.633241 2.07678 0.654763 2.47117 1.0757L6.23235 5.09006L9.99353 1.0757C10.3879 0.654763 11.0489 0.633241 11.4698 1.02763C11.8908 1.42202 11.9123 2.08298 11.5179 2.50391L7.6636 6.61764L11.5179 10.7314C11.9123 11.1523 11.8907 11.8133 11.4698 12.2077C11.0489 12.602 10.3879 12.5805 9.99353 12.1596L6.23235 8.14523L2.47117 12.1596C2.07678 12.5805 1.41583 12.602 0.994892 12.2077C0.573954 11.8133 0.552433 11.1523 0.946823 10.7314L4.80111 6.61764L0.946821 2.50391Z" fill="black"/>
</svg>
