<svg width="20" height="20" viewBox="0 0 20 20" fill="none" xmlns="http://www.w3.org/2000/svg">
<path d="M16.7546 18.1082C16.9616 17.9092 17.1336 17.7402 17.2986 17.5672C17.7686 17.0822 18.0156 16.5072 18.0156 15.9052C18.0156 15.2992 17.7656 14.7292 17.2936 14.2572L15.1796 12.1462L15.1426 12.1102C14.6846 11.6522 14.1276 11.4102 13.5336 11.4102C12.9276 11.4102 12.3526 11.6632 11.8726 12.1412L10.9746 13.0342L10.9236 13.0862L10.8596 13.0542C10.7626 13.0052 10.6796 12.9622 10.6086 12.9182C9.89964 12.4702 9.24163 11.9392 8.59663 11.2952C8.25564 10.9532 7.91363 10.5752 7.58163 10.1702C7.25263 9.75619 7.00863 9.39919 6.81163 9.04219L6.77363 8.97519L6.82963 8.92219C7.00063 8.75719 7.16563 8.59019 7.32863 8.42619L7.40463 8.34819L7.57663 8.17619L7.72263 8.02819C8.21463 7.53919 8.47463 6.96219 8.47463 6.35619C8.47463 5.75219 8.21663 5.17619 7.72963 4.68919L6.68063 3.64319L6.54063 3.50519C6.46763 3.43219 6.39963 3.36219 6.33563 3.29319C6.23463 3.18919 6.13163 3.08419 6.02663 2.98019C5.88263 2.83619 5.73763 2.69519 5.58863 2.56019C5.12963 2.10719 4.56963 1.86819 3.96763 1.86819C3.37163 1.86519 2.80263 2.10719 2.32363 2.56519L1.00663 3.88719C0.432634 4.45819 0.106634 5.15819 0.0336345 5.96619C-0.0653655 7.17219 0.281634 8.28119 0.551634 9.01219C1.19463 10.7342 2.15163 12.3252 3.56363 14.0172C3.91963 14.4412 4.29663 14.8522 4.68363 15.2392C6.16163 16.7172 7.85863 17.9222 9.72563 18.8202C10.6506 19.2572 11.8906 19.7692 13.2756 19.8572C13.3736 19.8622 13.4656 19.8662 13.5496 19.8672C14.5766 19.8672 15.4436 19.4962 16.1236 18.7632L16.1626 18.7232L16.1716 18.7082C16.3486 18.4982 16.5396 18.3122 16.7546 18.1082ZM13.5536 17.8432L13.5186 17.8422C13.4836 17.8432 13.4466 17.8412 13.4126 17.8392C12.3576 17.7732 11.3596 17.3532 10.6066 16.9942C8.94863 16.1952 7.44263 15.1252 6.12863 13.8102C5.78363 13.4652 5.44663 13.0992 5.12863 12.7212C3.86663 11.2072 3.01963 9.80319 2.46163 8.30319C2.13463 7.42919 2.01063 6.76019 2.06163 6.13319C2.09063 5.80419 2.20863 5.55419 2.44563 5.31819L3.74963 4.01919C3.86563 3.91119 3.94663 3.89619 3.96863 3.89519C4.03063 3.89419 4.10863 3.94019 4.18363 4.01519C4.32063 4.14219 4.44763 4.26619 4.57063 4.39019C4.67463 4.49419 4.77563 4.59619 4.87963 4.70319L5.08263 4.90819L5.24263 5.07219L6.29163 6.11619C6.40863 6.23319 6.43763 6.30419 6.44563 6.32919L6.47563 6.43319L6.41163 6.44619C6.39063 6.47819 6.35363 6.52519 6.29163 6.58819L6.18663 6.69319C6.11563 6.76519 6.04463 6.83719 5.97063 6.90819C5.70263 7.17919 5.36763 7.51819 5.02263 7.82619L4.95363 7.88919L4.94663 7.90119C4.59263 8.28619 4.50063 8.73019 4.66363 9.23519L4.67063 9.26319L4.68963 9.31419C4.97263 9.99719 5.37663 10.6522 5.99463 11.4342L6.01563 11.4612C6.39363 11.9202 6.77763 12.3452 7.16163 12.7302C7.91063 13.4792 8.68263 14.1002 9.51863 14.6282C9.68863 14.7352 9.86163 14.8222 10.0376 14.9092C10.1666 14.9732 10.2776 15.0292 10.3726 15.0862L10.3966 15.1032L10.4116 15.1092L10.4956 15.1502L10.4946 15.1552C10.6816 15.2412 10.8676 15.2842 11.0606 15.2842C11.4026 15.2832 11.7156 15.1482 11.9886 14.8842L13.3036 13.5742C13.3946 13.4852 13.4706 13.4442 13.5126 13.4362L13.5406 13.4302L13.5676 13.4412C13.5876 13.4482 13.6396 13.4792 13.6976 13.5362L15.8416 15.6722C16.0276 15.8582 16.0496 15.9452 15.8376 16.1622C15.7196 16.2902 15.6016 16.4042 15.4786 16.5222L15.4406 16.5602L15.3816 16.6152C15.1646 16.8212 14.8816 17.0972 14.6116 17.4102C14.3286 17.7092 14.0046 17.8422 13.5536 17.8432Z" fill="#E12026"/>
<path d="M14.0426 5.83997C13.0056 4.80297 11.6986 4.12397 10.2636 3.88097C10.2016 3.87097 10.1436 3.86597 10.0866 3.86597C9.56565 3.86597 9.12265 4.23597 9.03265 4.74797C8.98065 5.03197 9.04465 5.31797 9.21165 5.55397C9.24565 5.60397 9.28465 5.64997 9.32665 5.69197C9.48265 5.84797 9.68065 5.94997 9.90165 5.98497C10.8926 6.15197 11.7996 6.62397 12.5266 7.34897C13.2486 8.07297 13.7216 8.98197 13.8936 9.98097C13.9286 10.201 14.0306 10.399 14.1866 10.555C14.3876 10.756 14.6566 10.866 14.9456 10.866C14.9946 10.866 15.0396 10.863 15.0876 10.856C15.3966 10.808 15.6496 10.655 15.8186 10.417C15.9826 10.186 16.0466 9.90297 16.0006 9.62197C15.7566 8.18497 15.0796 6.87797 14.0426 5.83997Z" fill="#E12026"/>
<path d="M9.41863 1.97507C9.56963 2.12607 9.76463 2.22707 9.98063 2.26507C11.7446 2.56507 13.3556 3.40007 14.6376 4.67907C15.9146 5.95707 16.7486 7.56807 17.0476 9.33307C17.0836 9.54707 17.1836 9.74107 17.3366 9.89407C17.5316 10.0901 17.7946 10.1981 18.0736 10.1991C18.1246 10.1981 18.1726 10.1951 18.2206 10.1881C18.5116 10.1441 18.7546 9.99907 18.9206 9.76707C19.0846 9.53807 19.1486 9.26207 19.0996 8.98707C18.7246 6.79307 17.6886 4.79507 16.1036 3.21007C14.5176 1.62407 12.5196 0.58907 10.3266 0.21507C10.2696 0.20507 10.2116 0.19807 10.1486 0.19907C9.64763 0.19807 9.21863 0.56107 9.12863 1.05907C9.07463 1.40207 9.17963 1.73607 9.41863 1.97507Z" fill="#E12026"/>
</svg>
