<svg width="15" height="18" viewBox="0 0 15 18" fill="none" xmlns="http://www.w3.org/2000/svg">
<path fill-rule="evenodd" clip-rule="evenodd" d="M7.14367 14.4C7.04367 14.4 6.94367 14.3 6.84367 14.2L1.94404 9.7C1.54404 9.3 1.54404 8.7 1.94404 8.3C2.34404 7.9 2.94404 7.9 3.34404 8.3L6.54367 11.2L6.44367 1.5C6.44367 0.9 6.84367 0.5 7.44367 0.5C8.04367 0.5 8.44367 0.9 8.44367 1.5L8.54367 11.1L11.5437 8.3C11.9437 7.9 12.5437 7.9 12.9437 8.3C13.3437 8.7 13.3437 9.3 12.9437 9.7L8.24367 14.2C8.19367 14.2 8.16867 14.225 8.14367 14.25C8.11867 14.275 8.09367 14.3 8.04367 14.3C8.04367 14.4 7.94367 14.4 7.94367 14.4C7.64367 14.5 7.44367 14.5 7.14367 14.4ZM1.94287 15.7H13.1429C13.7429 15.7 14.1429 16.1 14.1429 16.7C14.1429 17.3 13.7429 17.7 13.1429 17.7H1.94287C1.34287 17.7 0.942871 17.3 0.942871 16.7C0.942871 16.1 1.34287 15.7 1.94287 15.7Z" fill="#E31E24"/>
</svg>
