<svg width="19" height="16" viewBox="0 0 19 16" fill="none" xmlns="http://www.w3.org/2000/svg">
<path d="M1.54794 12.524C1.62094 12.539 1.62094 12.539 1.69494 12.551L7.05394 12.535C7.12094 12.549 7.19694 12.545 7.26594 12.523L9.85494 10.743L9.85994 10.718L11.3039 9.75003L15.03 7.22193C16.782 6.11393 17.245 3.75493 16.118 2.08093C15.59 1.28793 14.702 0.728926 13.747 0.543926C12.788 0.354926 11.76 0.532926 10.967 1.06493L10.605 1.30993C10.519 1.36793 10.435 1.42393 10.423 1.49693L10.435 1.42193L8.67204 2.60593L7.08504 3.66993L3.32594 6.21803L3.23794 6.27703L3.14694 6.33603L3.13194 6.41003C3.11794 6.48203 3.11794 6.48203 3.10394 6.55703L0.98494 11.496C0.86794 11.701 0.88394 12.011 1.07694 12.201C1.19694 12.379 1.40394 12.494 1.54794 12.524ZM14.886 2.91093C15.183 3.35193 15.363 4.00093 15.245 4.59093C15.085 5.01693 14.849 5.42893 14.557 5.75493L12.129 2.14193C13.058 1.70893 14.294 2.03093 14.886 2.91093ZM8.26904 4.66793L10.034 3.48393L10.826 2.95093L13.252 6.56593L8.50494 9.83803L7.27394 10.666L4.84594 7.05503L8.26904 4.66793ZM3.96494 8.40903L5.73894 11.055L2.89794 11.104L3.96494 8.40903Z" fill="#6AC074"/>
<path d="M15.4885 14H1.51061C1.2068 14 1 14.3993 1 15C1 15.5973 1.20424 16 1.51061 16H15.4894C15.7438 16 16 15.6023 16 15C15.9991 14.3993 15.7949 14 15.4885 14Z" fill="#6AC074"/>
</svg>
