<svg width="26" height="21" viewBox="0 0 26 21" fill="none" xmlns="http://www.w3.org/2000/svg">
<path d="M24.3068 1.94653C23.6768 1.31453 22.8398 0.967529 21.9508 0.967529H3.81583C1.97683 0.967529 0.480835 2.46353 0.480835 4.30253V16.6975C0.480835 18.5365 1.97683 20.0335 3.81583 20.0335H21.9458C23.7848 20.0335 25.2808 18.5365 25.2808 16.6975V4.30653C25.2828 3.41753 24.9368 2.57853 24.3068 1.94653ZM2.62084 4.30653C2.62084 3.64753 3.15683 3.11253 3.81483 3.11253H21.9448C22.6028 3.11253 23.1378 3.64853 23.1378 4.30653V16.6965V16.8045C23.0828 17.4115 22.5718 17.8895 21.9498 17.8895H3.81583C3.15683 17.8895 2.62183 17.3545 2.62183 16.6965V4.30653H2.62084Z" fill="#E12026"/>
<path d="M9.22084 10.3966L4.62584 14.6346C4.19884 15.0386 4.17784 15.7166 4.57584 16.1476C4.78784 16.3676 5.07184 16.4896 5.36084 16.4896C5.63184 16.4896 5.89084 16.3866 6.08984 16.2026L10.8268 11.8366L12.1828 13.0476C12.3828 13.2226 12.6348 13.3186 12.8968 13.3186C13.1618 13.3186 13.4238 13.2156 13.6158 13.0376L15.0098 11.7886L19.7118 16.2066C19.9078 16.3946 20.1698 16.5006 20.4478 16.5006C20.7428 16.5006 21.0178 16.3826 21.2228 16.1676C21.4208 15.9586 21.5258 15.6856 21.5168 15.3966C21.5088 15.1106 21.3898 14.8456 21.1828 14.6516L16.6048 10.3546L21.1518 6.38057C21.5898 5.98357 21.6248 5.30457 21.2318 4.86657C21.0268 4.64057 20.7368 4.51257 20.4348 4.51257C20.1708 4.51257 19.9168 4.60957 19.7198 4.78557L12.8908 10.8126L11.6368 9.69257L11.5868 9.64057C11.5388 9.59157 11.4898 9.54957 11.4338 9.50857L6.03484 4.78057C5.83784 4.60457 5.58484 4.50757 5.32184 4.50757C5.01684 4.50757 4.72484 4.63857 4.52184 4.86657C4.12884 5.30657 4.16684 5.98557 4.60784 6.38057L9.22084 10.3966Z" fill="#E12026"/>
</svg>
