<svg width="15" height="14" viewBox="0 0 15 14" fill="none" xmlns="http://www.w3.org/2000/svg">
<path fill-rule="evenodd" clip-rule="evenodd" d="M14.5937 7.35108C14.798 7.14678 14.8264 6.90025 14.802 6.72575C14.8264 6.55124 14.798 6.30471 14.5937 6.1004L9.0151 0.521762C8.80417 0.310829 8.54821 0.287479 8.373 0.315995C8.18631 0.346378 8.00731 0.443124 7.8647 0.585738C7.72209 0.728351 7.62534 0.907342 7.59496 1.09403C7.56644 1.26925 7.58979 1.52521 7.80073 1.73614L11.7627 5.69809L8.9892 5.69809L4.66291 5.69809L4.66172 5.69809L1.09981 5.69809C0.801504 5.69809 0.604004 5.86257 0.500273 6.00663C0.449488 6.07716 0.40976 6.15645 0.38165 6.24111C0.341405 6.33313 0.31823 6.44114 0.31823 6.55667C0.318231 6.67187 0.341276 6.7796 0.381315 6.87145C0.409444 6.9565 0.449286 7.03614 0.500272 7.10694C0.604003 7.251 0.801504 7.41548 1.09981 7.41548L4.66226 7.41548L4.66291 7.41548L8.9892 7.41548L12.1006 7.41548L7.80072 11.7153C7.58979 11.9263 7.56644 12.1822 7.59496 12.3575C7.62534 12.5441 7.72209 12.7231 7.8647 12.8657C8.00731 13.0084 8.1863 13.1051 8.37299 13.1355C8.54821 13.164 8.80417 13.1407 9.0151 12.9297L14.5937 7.35108Z" fill="#01890F"/>
</svg>
