<svg width="15" height="14" viewBox="0 0 15 14" fill="none" xmlns="http://www.w3.org/2000/svg">
<path fill-rule="evenodd" clip-rule="evenodd" d="M0.625251 7.35108C0.420952 7.14678 0.392622 6.90025 0.416951 6.72575C0.392621 6.55124 0.420948 6.30471 0.62525 6.1004L6.20389 0.521762C6.41483 0.310829 6.67078 0.287479 6.846 0.315995C7.03269 0.346378 7.21168 0.443124 7.35429 0.585738C7.49691 0.728351 7.59365 0.907342 7.62404 1.09403C7.65255 1.26925 7.6292 1.52521 7.41827 1.73614L3.45632 5.69809L6.2298 5.69809L10.5561 5.69809L10.5573 5.69809L14.1192 5.69809C14.4175 5.69809 14.615 5.86257 14.7187 6.00663C14.7695 6.07716 14.8092 6.15645 14.8373 6.24111C14.8776 6.33313 14.9008 6.44114 14.9008 6.55667C14.9008 6.67187 14.8777 6.7796 14.8377 6.87145C14.8095 6.9565 14.7697 7.03614 14.7187 7.10694C14.615 7.251 14.4175 7.41548 14.1192 7.41548L10.5567 7.41548L10.5561 7.41548L6.22979 7.41548L3.11841 7.41548L7.41827 11.7153C7.6292 11.9263 7.65255 12.1822 7.62404 12.3575C7.59365 12.5441 7.49691 12.7231 7.35429 12.8657C7.21168 13.0084 7.03269 13.1051 6.846 13.1355C6.67079 13.164 6.41483 13.1407 6.20389 12.9297L0.625251 7.35108Z" fill="#AEA8B9"/>
</svg>
