<svg width="27" height="26" viewBox="0 0 27 26" fill="none" xmlns="http://www.w3.org/2000/svg">
<path fill-rule="evenodd" clip-rule="evenodd" d="M2.50089 9.91931L9.83734 9.92257L9.82078 2.44306H17.37V10.0716H18.9325V1.99267V0.858627H17.8203H9.08135L9.08138 0.858595H18.9326V10.0716H19.3831V0.408173H8.89338L0.487793 8.90542V25.853H19.3831V22.1492H18.9326V25.4026H18.9325V24.2686V22.1492H17.37V23.8181H2.50089V9.91931ZM9.36936 1.99267H9.36927L9.38583 9.47195H9.38592L9.36936 1.99267ZM17.8203 24.2686V24.2686H2.05038V9.46872H2.05046V24.2686H17.8203ZM4.1597 12.3198H7.85677C8.77203 12.3198 9.48189 12.5432 9.98637 12.99C10.4908 13.4296 10.7431 14.053 10.7431 14.8601C10.7431 15.6745 10.4908 16.3087 9.98637 16.7627C9.48189 17.2167 8.77203 17.4438 7.85677 17.4438H6.17039V20.0382H4.1597V12.3198ZM6.17039 15.7249H7.59733C7.98649 15.7249 8.26395 15.6565 8.42971 15.5196C8.60267 15.3826 8.68915 15.1736 8.68915 14.8926C8.68915 14.6115 8.60267 14.4061 8.42971 14.2764C8.26395 14.1395 7.98649 14.071 7.59733 14.071H6.17039V15.7249ZM12.0773 12.3198H15.5149C16.6752 12.3198 17.5616 12.6657 18.1742 13.3575C18.7868 14.0494 19.0931 14.9899 19.0931 16.179C19.0931 17.3681 18.7868 18.3086 18.1742 19.0004C17.5616 19.6923 16.6752 20.0382 15.5149 20.0382H12.0773V12.3198ZM14.088 18.2653H15.1906C15.832 18.2653 16.3004 18.0744 16.5959 17.6924C16.8914 17.3104 17.0391 16.806 17.0391 16.179C17.0391 15.5448 16.8914 15.0403 16.5959 14.6656C16.3004 14.2836 15.832 14.0926 15.1906 14.0926H14.088V18.2653ZM25.4544 15.4115H22.4384V14.0926H26.33V12.3198H20.4277V20.0382H22.4384V17.1411H25.4544V15.4115Z" fill="white"/>
</svg>
