<?xml version="1.0" encoding="utf-8"?>
<!-- Generator: Adobe Illustrator 23.0.5, SVG Export Plug-In . SVG Version: 6.00 Build 0)  -->
<svg version="1.1" id="Слой_1" xmlns="http://www.w3.org/2000/svg" xmlns:xlink="http://www.w3.org/1999/xlink" x="0px" y="0px"
	 viewBox="0 0 18 35" style="enable-background:new 0 0 18 35;" xml:space="preserve">
<path style="fill:#FFFFFF;" d="M6.9,12c3.2,0,5.8-2.7,5.8-6s-2.6-6-5.8-6S1.1,2.7,1.1,6S3.7,12,6.9,12z"/>
<path style="fill:#FFFFFF;" d="M6.8,26.1l8.3,0c0.6,0,1.2-0.2,1.6-0.7c0.3-0.3,0.5-0.7,0.4-1.2l0-9.2c0,0-1-2.6-2.9,0l-0.1,0.1
	c0,0,0.4-1.6-0.3-2.1c0,0-1.3-1.7-2.7,0.5c0,0,0.3-2.3-0.9-2.6c0,0-1.2-0.6-2.1,1.1c0,0,0.1-4.1,0-4.4c0,0,0.4-2.9-1.3-2.9
	c0,0-2.2-0.4-1.5,4.2l0,7.1c0,0,0,1.4-0.9,0.7L3,14.2c0,0-1.1-0.6-1.8-0.1c-0.7,0.5-0.3,1.4-0.2,1.7c0,0,3,6.9,4.3,9.4
	C5.6,25.8,6.2,26.1,6.8,26.1z"/>
<path style="fill:#CD541F;" d="M6.7,4.8c0.1,0,0.1,0,0.1,0c0,0,0,0,0,0c1.7,0,1.3,2.9,1.3,2.9c0.1,0.4,0,4.4,0,4.4c0.5-1,1.1-1.2,1.6-1.2
	c0.3,0,0.5,0.1,0.5,0.1c1.3,0.2,0.9,2.6,0.9,2.6c0.5-0.9,1.1-1.1,1.5-1.1c0.7,0,1.2,0.6,1.2,0.6c0.7,0.5,0.3,2.1,0.3,2.1l0.1-0.1
	c0.6-0.9,1.2-1.1,1.6-1.1c0.9,0,1.3,1.2,1.3,1.2l0,9.2c0.1,1.3-1.5,1.9-1.5,1.9l-9.8,0c0,0,0,0,0,0c-0.4,0-4.8-10.3-4.8-10.3
	c-0.1-0.3-0.5-1.2,0.2-1.7c0.2-0.1,0.4-0.2,0.7-0.2c0.6,0,1.1,0.3,1.1,0.3l1.4,2.5C4.6,16.9,4.8,17,4.9,17c0.5,0,0.4-0.9,0.4-0.9
	l0-7.1C4.8,5.1,6.3,4.8,6.7,4.8z M6.7,3.9L6.7,3.9c-0.4,0-1,0.1-1.6,0.8C4.4,5.5,4.2,7,4.5,9l0,6l-0.7-1.3l-0.1-0.2l-0.2-0.1
	c-0.1,0-0.8-0.4-1.5-0.4c-0.4,0-0.8,0.1-1.1,0.3C0.2,13.8,0,14.4,0,15c0,0.5,0.2,0.8,0.3,1.1l0,0.1l0,0l0,0c0,0,1.1,2.6,2.2,5.2
	c0.7,1.5,1.2,2.7,1.6,3.6c0.8,1.6,1,2.1,1.7,2.1c0,0,0,0,0,0l9.7,0l0.1,0l0.1-0.1c0.8-0.3,2.2-1.2,2-2.8l0-9.2l0-0.2l-0.1-0.2
	c-0.1-0.2-0.7-1.7-2.1-1.7c-0.3,0-0.6,0.1-0.9,0.2c-0.1-0.3-0.3-0.6-0.5-0.8c-0.2-0.2-0.8-0.8-1.7-0.8c-0.2,0-0.5,0-0.8,0.2
	c-0.2-0.7-0.6-1.4-1.4-1.6c-0.2-0.1-0.4-0.1-0.8-0.1c-0.2,0-0.4,0-0.7,0.1c0-1.5,0-2.2,0-2.5c0.1-0.5,0.1-2.1-0.7-3.1
	C8,4.2,7.5,3.9,6.9,3.9C6.9,3.9,6.8,3.9,6.7,3.9z"/>
<path style="fill:#FFFFFF;" d="M14.9,28.5l-7.8,0c-0.4,0-0.8-0.4-0.8-0.8l0-1.2c0-0.5,0.4-0.8,0.8-0.8l7.8,0c0.4,0,0.8,0.4,0.8,0.8l0,1.2
	C15.7,28.1,15.4,28.5,14.9,28.5z"/>
<path style="fill:#FFFFFF;" d="M15.8,35H6.3c-0.5,0-0.8-0.4-0.8-0.8v-3.7c0-0.5,0.4-0.8,0.8-0.8h9.5c0.5,0,0.8,0.4,0.8,0.8v3.7
	C16.6,34.6,16.2,35,15.8,35z"/>
</svg>
