<?xml version="1.0" encoding="utf-8"?>
<!-- Generator: Adobe Illustrator 23.0.5, SVG Export Plug-In . SVG Version: 6.00 Build 0)  -->
<svg version="1.1" id="Слой_1" xmlns="http://www.w3.org/2000/svg" xmlns:xlink="http://www.w3.org/1999/xlink" x="0px" y="0px"
	 viewBox="0 0 38 26" style="enable-background:new 0 0 38 26;" xml:space="preserve">

<g>
	<path style="fill:#18AA29;" d="M28.3,4.1c-1-0.7-1.8-1.7-2.3-2.7L5.3,1.5C4.8,2.5,4,3.5,3,4.2C2.4,4.7,1.7,5,1.1,5.2V12
		c0.6,0.2,1.3,0.5,1.9,0.9c1,0.7,1.8,1.7,2.3,2.7L26,15.5c0.5-1,1.3-2,2.3-2.7c0.5-0.4,1-0.6,1.6-0.8V5C29.3,4.7,28.8,4.5,28.3,4.1z
		 M19.7,12.6c-1.1,1.2-2.6,1.9-4.2,1.9c-1.4,0-2.7-0.5-3.8-1.4c-0.1-0.1-0.3-0.3-0.4-0.4c-1.1-1.2-1.7-2.8-1.7-4.5
		c0-3.5,2.6-6.3,5.9-6.3s5.9,2.8,5.9,6.3C21.4,9.8,20.8,11.4,19.7,12.6z"/>
	<path style="fill:#FFFFFF;" d="M31.2,1.4L31.2,1.4c0-0.8-0.6-1.4-1.3-1.4L1.3,0.1C0.6,0.1,0,0.7,0,1.5l0,0l0.1,14v0.1v0.1l0,0v0.1l0,0v0.1
		l0,0V16l0,0c0,0,0,0.1,0.1,0.1l0,0c0,0,0,0.1,0.1,0.1l0,0c0,0,0,0.1,0.1,0.1l0,0c0,0,0,0.1,0.1,0.1l0,0l0.1,0.1l0,0
		c0,0,0.1,0,0.1,0.1l0,0c0,0,0.1,0,0.1,0.1l0,0h0.1l0,0H1l0,0h0.1l0,0h0.1l0,0h0.1h9.9l14.3-0.1h4.4H30l0,0h0.1l0,0h0.1l0,0h0.1l0,0
		h0.1l0,0c0,0,0.1,0,0.1-0.1l0,0c0,0,0.1,0,0.1-0.1l0,0c0,0,0.1,0,0.1-0.1l0,0l0.1-0.1l0,0c0,0,0-0.1,0.1-0.1l0,0c0,0,0-0.1,0.1-0.1
		l0,0c0,0,0-0.1,0.1-0.1l0,0v-0.1l0,0v-0.1l0,0v-0.1l0,0v-0.1v-0.1L31.2,1.4z M28.3,12.8c-1,0.7-1.8,1.7-2.3,2.7L5.3,15.6
		c-0.5-1-1.3-2-2.3-2.7c-0.6-0.4-1.2-0.7-1.9-0.9V5.2C1.7,5,2.4,4.7,3,4.2c1-0.7,1.8-1.7,2.3-2.7L26,1.4c0.5,1,1.3,2,2.3,2.7
		c0.5,0.4,1,0.6,1.6,0.8v7C29.3,12.2,28.8,12.4,28.3,12.8z"/>
	<path style="fill:#FFFFFF;" d="M15.5,1.9c-3.2,0-5.8,2.9-5.8,6.3s2.6,6.2,5.8,6.2s5.8-2.9,5.8-6.3S18.7,1.9,15.5,1.9z"/>
	<path style="fill:#18AA29;" d="M16.2,7.2c-0.3-0.1-0.6-0.2-0.8-0.3c-0.2-0.1-0.3-0.2-0.4-0.3c-0.1-0.1-0.1-0.2-0.1-0.3c0-0.1,0.1-0.2,0.2-0.3
		c0.1-0.1,0.3-0.1,0.6-0.1c0.6,0,1.2,0.2,1.9,0.5L18,4.9c-0.7-0.3-1.3-0.5-2-0.5V3.2h-1v1.2c-0.7,0.1-1.2,0.3-1.6,0.6
		c-0.3,0.3-0.5,0.8-0.5,1.4c0,0.4,0.1,0.7,0.2,1c0.1,0.3,0.3,0.5,0.6,0.7c0.3,0.2,0.6,0.4,1,0.6c0.4,0.1,0.7,0.3,0.9,0.4
		c0.2,0,0.4,0.1,0.4,0.1c0.1,0.1,0.1,0.2,0.1,0.3c0,0.2-0.1,0.3-0.2,0.4c0,0.1-0.2,0.1-0.5,0.1s-0.7-0.1-1.2-0.2
		c-0.5-0.1-0.9-0.3-1.3-0.5v1.8c0.7,0.3,1.4,0.5,2.1,0.5V13h1v-1.4c0.7-0.1,1.2-0.3,1.5-0.7C17.9,10.5,18,10,18,9.4
		c0-0.5-0.2-1-0.5-1.3S16.9,7.5,16.2,7.2z"/>
</g>
<g>
	<path style="fill:#18AA29;" d="M34.7,13.1c-1-0.7-1.8-1.7-2.3-2.7l-20.7,0.1c-0.5,1-1.3,2-2.3,2.7c-0.6,0.5-1.3,0.8-1.9,1V21
		c0.6,0.2,1.3,0.5,1.9,0.9c1,0.7,1.8,1.7,2.3,2.7l20.7-0.1c0.5-1,1.3-2,2.3-2.7c0.5-0.4,1-0.6,1.6-0.8v-7
		C35.7,13.7,35.2,13.5,34.7,13.1z M26.1,21.6c-1.1,1.2-2.6,1.9-4.2,1.9c-1.4,0-2.7-0.5-3.8-1.4c-0.1-0.1-0.3-0.3-0.4-0.4
		c-1.1-1.2-1.7-2.8-1.7-4.5c0-3.5,2.6-6.3,5.9-6.3s5.9,2.8,5.9,6.3C27.8,18.8,27.2,20.4,26.1,21.6z"/>
	<path style="fill:#FFFFFF;" d="M37.6,10.4L37.6,10.4C37.6,9.6,37,9,36.3,9L7.7,9.1c-0.7,0-1.3,0.6-1.3,1.4l0,0l0.1,14v0.1v0.1l0,0v0.1l0,0
		v0.1l0,0V25l0,0c0,0,0,0.1,0.1,0.1l0,0c0,0,0,0.1,0.1,0.1l0,0c0,0,0,0.1,0.1,0.1l0,0c0,0,0,0.1,0.1,0.1l0,0L7,25.5l0,0
		c0,0,0.1,0,0.1,0.1l0,0c0,0,0.1,0,0.1,0.1l0,0h0.1l0,0h0.1l0,0h0.1l0,0h0.1l0,0h0.1h9.9l14.3-0.1h4.4h0.1l0,0h0.1l0,0h0.1l0,0h0.1
		l0,0h0.1l0,0c0,0,0.1,0,0.1-0.1l0,0c0,0,0.1,0,0.1-0.1l0,0c0,0,0.1,0,0.1-0.1l0,0l0.1-0.1l0,0c0,0,0-0.1,0.1-0.1l0,0
		c0,0,0-0.1,0.1-0.1l0,0c0,0,0-0.1,0.1-0.1l0,0v-0.1l0,0v-0.1l0,0v-0.1l0,0v-0.1v-0.1L37.6,10.4z M34.7,21.8c-1,0.7-1.8,1.7-2.3,2.7
		l-20.7,0.1c-0.5-1-1.3-2-2.3-2.7c-0.6-0.4-1.2-0.7-1.9-0.9v-6.8c0.6-0.2,1.3-0.5,1.9-1c1-0.7,1.8-1.7,2.3-2.7l20.7-0.1
		c0.5,1,1.3,2,2.3,2.7c0.5,0.4,1,0.6,1.6,0.8v7C35.7,21.2,35.2,21.4,34.7,21.8z"/>
	<path style="fill:#FFFFFF;" d="M21.9,10.9c-3.2,0-5.8,2.9-5.8,6.3s2.6,6.2,5.8,6.2s5.8-2.9,5.8-6.3S25.1,10.9,21.9,10.9z"/>
	<path style="fill:#18AA29;" d="M22.6,16.2c-0.3-0.1-0.6-0.2-0.8-0.3c-0.2-0.1-0.3-0.2-0.4-0.3c-0.1-0.1-0.1-0.2-0.1-0.3s0.1-0.2,0.2-0.3
		c0.1-0.1,0.3-0.1,0.6-0.1c0.6,0,1.2,0.2,1.9,0.5l0.4-1.5c-0.7-0.3-1.3-0.5-2-0.5v-1.2h-1v1.2c-0.7,0.1-1.2,0.3-1.6,0.6
		c-0.3,0.3-0.5,0.8-0.5,1.4c0,0.4,0.1,0.7,0.2,1c0.1,0.3,0.3,0.5,0.6,0.7c0.3,0.2,0.6,0.4,1,0.6c0.4,0.1,0.7,0.3,0.9,0.4
		c0.2,0,0.4,0.1,0.4,0.1c0.1,0.1,0.1,0.2,0.1,0.3c0,0.2-0.1,0.3-0.2,0.4c0,0.1-0.2,0.1-0.5,0.1s-0.7-0.1-1.2-0.2
		c-0.5-0.1-0.9-0.3-1.3-0.5v1.8c0.7,0.3,1.4,0.5,2.1,0.5V22h1v-1.4c0.7-0.1,1.2-0.3,1.5-0.7c0.4-0.4,0.5-0.9,0.5-1.5
		c0-0.5-0.2-1-0.5-1.3S23.3,16.5,22.6,16.2z"/>
</g>
</svg>
